# xmcd
#
# Track frame offsets:
# 150
# 19382
# 40838
# 56150
# 73593
# 90376
# 107572
# 128930
# 151816
# 167271
# 187845
# 214688
# 238438
# 255004
# 274514
# 290605
# 303636
# 331637
#
# Disc length: 4658 seconds
#
#
# Revision: 0
# Processed by: cddbd v1.5.1PL2 Copyright (c) Steve Scherf et al.
# Submitted via: FreeRIP 2.945 
#
DISCID=f0123012
DTITLE=varios - especial sertanejo 2005
DYEAR=2005
DGENRE=sertanejo
TTITLE0=eu amo - zeze de camargo
TTITLE1=será - bruno e marrone
TTITLE2=mulher chorona - teodoro e sampaio
TTITLE3=a majestade, o sabiá - roberta  miranda
TTITLE4=ela chorou de amor - gino e geno
TTITLE5=no fim da estrada - rio negro e solimões
TTITLE6=por um minuto - bruno e marrone
TTITLE7=chora peito - chrystian e ralf
TTITLE8=estrada da vida - milionário e josé rico
TTITLE9=te amar foi ilusão - bruno e marrone
TTITLE10=vá com deus - roberta miranda
TTITLE11=hey jude - zeze de camargo
TTITLE12=doce desejo - bruno e marrone
TTITLE13=uma noite - bruno e marrone
TTITLE14=faz amor comigo - roberta miranda
TTITLE15=de bem com a vida - rio negro e solimões
TTITLE16=pra mudar minha vida - zezé de camargo
TTITLE17=enquanto o sol brilhar - mato grosso e matias
EXTD=
EXTT0=
EXTT1=
EXTT2=
EXTT3=
EXTT4=
EXTT5=
EXTT6=
EXTT7=
EXTT8=
EXTT9=
EXTT10=
EXTT11=
EXTT12=
EXTT13=
EXTT14=
EXTT15=
EXTT16=
EXTT17=
PLAYORDER=
